<mxfile host="app.diagrams.net" modified="2022-08-25T19:45:13.104Z" agent="5.0 (Windows NT 10.0; Win64; x64) AppleWebKit/537.36 (KHTML, like Gecko) Chrome/104.0.0.0 Safari/537.36" etag="TtOCqf9LP6Zn6e-bDtUu" version="20.2.7" type="github">
  <diagram id="DoXPYrPWovpTTr7cnS_K" name="Page-1">
    <mxGraphModel dx="1038" dy="1671" grid="1" gridSize="10" guides="1" tooltips="1" connect="1" arrows="1" fold="1" page="1" pageScale="1" pageWidth="850" pageHeight="1100" math="0" shadow="0">
      <root>
        <mxCell id="0" />
        <mxCell id="1" parent="0" />
        <mxCell id="iaIJ1n0YUWlfMmTlzXlj-1" value="&lt;b&gt;&amp;lt;&amp;lt;Structural Pattern&amp;gt;&amp;gt;&lt;/b&gt;" style="text;html=1;strokeColor=none;fillColor=none;align=center;verticalAlign=middle;whiteSpace=wrap;rounded=0;" parent="1" vertex="1">
          <mxGeometry x="40" y="-1070" width="200" height="30" as="geometry" />
        </mxCell>
        <mxCell id="iaIJ1n0YUWlfMmTlzXlj-2" value="&lt;h1&gt;Adapter&lt;/h1&gt;" style="text;html=1;strokeColor=none;fillColor=none;spacing=5;spacingTop=-20;whiteSpace=wrap;overflow=hidden;rounded=0;" parent="1" vertex="1">
          <mxGeometry x="360" y="-1080" width="110" height="40" as="geometry" />
        </mxCell>
        <mxCell id="iaIJ1n0YUWlfMmTlzXlj-3" value="&lt;strong style=&quot;box-sizing: border-box; font-weight: bolder; color: rgb(68, 68, 68); font-family: &amp;quot;PT Sans&amp;quot;, &amp;quot;Helvetica Neue&amp;quot;, Arial, sans-serif; font-size: 16px; font-style: normal; font-variant-ligatures: normal; font-variant-caps: normal; letter-spacing: normal; orphans: 2; text-align: left; text-indent: 0px; text-transform: none; widows: 2; word-spacing: 0px; -webkit-text-stroke-width: 0px; background-color: rgb(255, 255, 255); text-decoration-thickness: initial; text-decoration-style: initial; text-decoration-color: initial;&quot;&gt;Adapter&lt;/strong&gt;&lt;span style=&quot;color: rgb(68, 68, 68); font-family: &amp;quot;PT Sans&amp;quot;, &amp;quot;Helvetica Neue&amp;quot;, Arial, sans-serif; font-size: 16px; font-style: normal; font-variant-ligatures: normal; font-variant-caps: normal; font-weight: 400; letter-spacing: normal; orphans: 2; text-align: left; text-indent: 0px; text-transform: none; widows: 2; word-spacing: 0px; -webkit-text-stroke-width: 0px; background-color: rgb(255, 255, 255); text-decoration-thickness: initial; text-decoration-style: initial; text-decoration-color: initial; float: none; display: inline !important;&quot;&gt;&lt;span&gt;&amp;nbsp;&lt;/span&gt;is a structural design pattern that allows objects with incompatible interfaces to&amp;nbsp;collaborate.&lt;/span&gt;" style="text;whiteSpace=wrap;html=1;" parent="1" vertex="1">
          <mxGeometry x="80" y="-1030" width="710" height="40" as="geometry" />
        </mxCell>
        <mxCell id="jIrhl1_V9wTLY9US-jRY-10" style="edgeStyle=orthogonalEdgeStyle;rounded=0;orthogonalLoop=1;jettySize=auto;html=1;endArrow=open;endFill=0;" edge="1" parent="1" source="jIrhl1_V9wTLY9US-jRY-1">
          <mxGeometry relative="1" as="geometry">
            <mxPoint x="320" y="-905" as="targetPoint" />
          </mxGeometry>
        </mxCell>
        <mxCell id="jIrhl1_V9wTLY9US-jRY-1" value="&lt;p style=&quot;margin:0px;margin-top:4px;text-align:center;&quot;&gt;&lt;br&gt;&lt;b&gt;Client&lt;/b&gt;&lt;/p&gt;" style="verticalAlign=top;align=left;overflow=fill;fontSize=12;fontFamily=Helvetica;html=1;" vertex="1" parent="1">
          <mxGeometry x="120" y="-935" width="140" height="60" as="geometry" />
        </mxCell>
        <mxCell id="jIrhl1_V9wTLY9US-jRY-2" value="&lt;p style=&quot;margin:0px;margin-top:4px;text-align:center;&quot;&gt;&lt;b&gt;Adapter&lt;/b&gt;&lt;/p&gt;&lt;hr size=&quot;1&quot;&gt;&lt;p style=&quot;margin:0px;margin-left:4px;&quot;&gt;- adaptee : Service&lt;/p&gt;&lt;hr size=&quot;1&quot;&gt;&lt;p style=&quot;margin:0px;margin-left:4px;&quot;&gt;+ method(data)&lt;/p&gt;" style="verticalAlign=top;align=left;overflow=fill;fontSize=12;fontFamily=Helvetica;html=1;" vertex="1" parent="1">
          <mxGeometry x="320" y="-800" width="200" height="90" as="geometry" />
        </mxCell>
        <mxCell id="jIrhl1_V9wTLY9US-jRY-4" value="&lt;p style=&quot;margin:0px;margin-top:4px;text-align:center;&quot;&gt;&lt;i&gt;&amp;lt;&amp;lt;Interface&amp;gt;&amp;gt;&lt;/i&gt;&lt;br&gt;&lt;b&gt;ClientInterface&lt;/b&gt;&lt;/p&gt;&lt;hr size=&quot;1&quot;&gt;&lt;p style=&quot;margin:0px;margin-left:4px;&quot;&gt;+ field1: Type&lt;br&gt;+ field2: Type&lt;/p&gt;&lt;hr size=&quot;1&quot;&gt;&lt;p style=&quot;margin:0px;margin-left:4px;&quot;&gt;+ method(data)&lt;br&gt;&lt;/p&gt;" style="verticalAlign=top;align=left;overflow=fill;fontSize=12;fontFamily=Helvetica;html=1;" vertex="1" parent="1">
          <mxGeometry x="322" y="-960" width="197" height="110" as="geometry" />
        </mxCell>
        <mxCell id="jIrhl1_V9wTLY9US-jRY-5" value="csvData = convertToCsv(xmlData)&amp;nbsp;&lt;br&gt;&lt;b&gt;return&lt;/b&gt; adaptee.serviceMethod(csvData)" style="text;html=1;strokeColor=#d6b656;fillColor=#fff2cc;align=center;verticalAlign=middle;whiteSpace=wrap;rounded=1;" vertex="1" parent="1">
          <mxGeometry x="320" y="-670" width="220" height="90" as="geometry" />
        </mxCell>
        <mxCell id="jIrhl1_V9wTLY9US-jRY-6" value="&lt;p style=&quot;margin:0px;margin-top:4px;text-align:center;&quot;&gt;&lt;b style=&quot;&quot;&gt;Service&lt;/b&gt;&lt;/p&gt;&lt;hr size=&quot;1&quot;&gt;&lt;p style=&quot;margin:0px;margin-left:4px;&quot;&gt;+ field1: Type&lt;br&gt;+ field2: Type&lt;/p&gt;&lt;hr size=&quot;1&quot;&gt;&lt;p style=&quot;margin:0px;margin-left:4px;&quot;&gt;+ serviceMethod(specialData)&lt;br&gt;&lt;br&gt;&lt;/p&gt;" style="verticalAlign=top;align=left;overflow=fill;fontSize=12;fontFamily=Helvetica;html=1;rounded=0;strokeColor=default;" vertex="1" parent="1">
          <mxGeometry x="560" y="-820" width="190" height="100" as="geometry" />
        </mxCell>
        <mxCell id="jIrhl1_V9wTLY9US-jRY-7" value="" style="endArrow=none;dashed=1;html=1;rounded=0;entryX=0.547;entryY=0.993;entryDx=0;entryDy=0;entryPerimeter=0;exitX=0.5;exitY=0;exitDx=0;exitDy=0;" edge="1" parent="1" source="jIrhl1_V9wTLY9US-jRY-5" target="jIrhl1_V9wTLY9US-jRY-2">
          <mxGeometry width="50" height="50" relative="1" as="geometry">
            <mxPoint x="380" y="-620" as="sourcePoint" />
            <mxPoint x="430" y="-670" as="targetPoint" />
          </mxGeometry>
        </mxCell>
        <mxCell id="jIrhl1_V9wTLY9US-jRY-8" value="" style="endArrow=open;html=1;rounded=0;exitX=1;exitY=0.5;exitDx=0;exitDy=0;entryX=-0.006;entryY=0.656;entryDx=0;entryDy=0;entryPerimeter=0;endFill=0;" edge="1" parent="1" source="jIrhl1_V9wTLY9US-jRY-2" target="jIrhl1_V9wTLY9US-jRY-6">
          <mxGeometry width="50" height="50" relative="1" as="geometry">
            <mxPoint x="480" y="-710" as="sourcePoint" />
            <mxPoint x="530" y="-760" as="targetPoint" />
          </mxGeometry>
        </mxCell>
        <mxCell id="jIrhl1_V9wTLY9US-jRY-9" value="" style="endArrow=block;dashed=1;endFill=0;endSize=12;html=1;rounded=0;entryX=0.5;entryY=1;entryDx=0;entryDy=0;" edge="1" parent="1" target="jIrhl1_V9wTLY9US-jRY-4">
          <mxGeometry width="160" relative="1" as="geometry">
            <mxPoint x="420" y="-800" as="sourcePoint" />
            <mxPoint x="580" y="-800" as="targetPoint" />
          </mxGeometry>
        </mxCell>
      </root>
    </mxGraphModel>
  </diagram>
</mxfile>
